<?xml version="1.0" encoding="utf-8" ?>
<svg baseProfile="full" height="200mm" version="1.1" viewBox="0,0,200,200" width="200mm" xmlns="http://www.w3.org/2000/svg" xmlns:ev="http://www.w3.org/2001/xml-events" xmlns:xlink="http://www.w3.org/1999/xlink"><defs /><rect fill="#1a1a1a" height="200" width="200" x="0" y="0" /><text alignment-baseline="middle" fill="#e1ed5e" style="dominant-baseline: central; font-size:9.0px; font-family:Arial;" text-anchor="middle" x="100.0" y="100.0">2025</text><line stroke="#e1ed5e" stroke-width="0.3" x1="100.0" x2="100.0" y1="15.0" y2="10.0" /><path d="M 100.0 14.0 a86.0,86.0 0 0,1 42.46469731375804,11.215312516191453" fill="none" id="id37" stroke="none" /><text fill="#e1ed5e" style="font-size:6.75px; font-family:Arial;" text-anchor="middle"><textPath startOffset="22.20632615414155" xlink:href="#id37">January</textPath></text><path d="M 100.0 79.0 l 0.0 -30.885644919256215 a51.885644919256215,51.885644919256215 0 0,0 0.8931260853703316,0.00768741818675072 l -0.5316456060978032 30.881068877678022" fill="#acff20" stroke="none" /><path d="M 100.36148047927253 79.00311137660856 l 0.28824067151309735 -16.742694622602855 a37.745175601063394,37.745175601063394 0 0,0 0.649528624386517,0.016775408071802857 l -0.5763959310944822 16.73525242238869" fill="#ff900d" stroke="none" /><path d="M 100.72285384407766 79.0124445844662 l 0.2571953353364688 -7.467486542702828 a28.47191439364549,28.47191439364549 0 0,0 0.4896615667948198,0.021085857096651905 l -0.3856977345206202 7.461952959081981" fill="#ff0000" stroke="none" /><path d="M 101.08401301168833 79.027996857942 l 2.261745028743704 -43.7571535930833 a64.81556779437794,64.81556779437794 0 0,0 1.1137103183914558,0.0671820478163268 l -3.014617395974772 43.71173827588667" fill="#32ff4d" stroke="none" /><path d="M 101.44485096284872 79.0497635885617 l 0.9500349491188004 -13.775439332459102 a34.808160457019916,34.808160457019916 0 0,0 0.5973905961409425,0.04636900773747567 l -1.187015734622084 13.757045062533162" fill="#ff6409" stroke="none" /><path d="M 101.80526077348638 79.07773832637324 l 2.639555033499389 -30.591403704053096 a51.70506849624709,51.70506849624709 0 0,0 0.886064521613197,0.08414250293641226 l -3.1657446822028303 30.541435656601504" fill="#afff20" stroke="none" /><path d="M 102.16513564639614 79.11191278185805 l 2.408904585357718 -23.239841421893075 a44.364354273467406,44.364354273467406 0 0,0 0.7589120586819097,0.08527261238766608 l -2.808583347549353 23.194932856034807" fill="#ffef16" stroke="none" /><path d="M 102.52436894288641 79.15227682838746 l 3.688012820406698 -30.45777858654976 a51.68024959140283,51.68024959140283 0 0,0 0.8822194431217294,0.11453740358475366 l -4.211746992036273 30.38978285980087" fill="#afff20" stroke="none" /><path d="M 102.88285421437855 79.19881850522331 l 1.9970205594945203 -14.409465070990626 a35.54719130097431,35.54719130097431 0 0,0 0.60537039370786,0.08921585972126515 l -2.244759933631036 14.372954727108391" fill="#ff6f0a" stroke="none" /><path d="M 103.2404852339499 79.25152402106235 l 2.3168193652924023 -14.834343463343835 a36.01417323597426,36.01417323597426 0 0,0 0.6116763694441436,0.10093184200365884 l -2.571824940875421 14.79226535840055" fill="#ff770a" stroke="none" /><path d="M 103.59715602781102 79.31037775812273 l 7.882916132351598 -45.339861735717484 a67.02003290919801,67.02003290919801 0 0,0 1.1348881279216645,0.20739355135532836 l -8.662199381376164 45.19745270301142" fill="#35ff69" stroke="none" /><path d="M 103.95276090670814 79.375362276772 l 1.656595066202211 -8.643748989857734 a29.80106265248874,29.80106265248874 0 0,0 0.5029760779817494,0.10089226948986695 l -1.8051375536510859 8.613952764290659" fill="#ff1602" stroke="none" /><path d="M 104.66035177308747 79.52364482259891 l 6.5046696007913765 -28.579800740923158 a50.31067616085189,50.31067616085189 0 0,0 0.8427668650612828,0.19945568825466042 l -6.995660152815183 28.46359914052763" fill="#c0ff1e" stroke="none" /><path d="M 105.01212808612495 79.60689891045804 l 7.336783715291105 -29.851545971506273 a51.73992830463196,51.73992830463196 0 0,0 0.8630493802469836,0.2200105036210106 l -7.849541984223114 29.720832471716395" fill="#aeff20" stroke="none" /><path d="M 105.36241919743992 79.69619591428918 l 7.150125202224105 -27.072620761086647 a49.00091222230269,49.00091222230269 0 0,0 0.8136534058038387,0.22240221174165795 l -7.615076497251655 26.945532008518693" fill="#d1ff1c" stroke="none" /><path d="M 106.0581310904928 79.89281104454417 l 12.684711771152353 -42.10108573390216 a64.97048251600829,64.97048251600829 0 0,0 1.0680362336461238,0.3318440567278383 l -13.407533377509194 41.8765015422918" fill="#33ff4f" stroke="none" /><path d="M 106.40334571778207 80.00007090966166 l 7.111708469756204 -22.212398232895698 a44.323100836199934,44.323100836199934 0 0,0 0.7246134232642337,0.23889365299675255 l -7.493004715262855 22.08669085563971" fill="#ffee16" stroke="none" /><path d="M 106.74666289553966 80.11325718540242 l 9.844117530123903 -29.01692830801894 a51.6412920481432,51.6412920481432 0 0,0 0.8393382052121637,0.29282861896084567 l -10.34213773939934 28.84317883588589" fill="#afff20" stroke="none" /><path d="M 107.08798089147638 80.2323363322302 l 9.33120482038976 -26.02378890811541 a48.6461384741923,48.6461384741923 0 0,0 0.7857919025409856,0.28941378927650513 l -9.777779048703321 25.85931185103258" fill="#d6ff1c" stroke="none" /><path d="M 107.4271985657038 80.35727306442388 l 3.117104358456909 -8.24381214548304 a29.813443042961403,29.813443042961403 0 0,0 0.4784586768953118,0.18563453333384863 l -3.258546200351888 8.188934908258645" fill="#ff1602" stroke="none" /><path d="M 107.76421540070413 80.48803036053334 l 10.88309022902591 -27.34990146114078 a50.43567160550664,50.43567160550664 0 0,0 0.8038872778336201,0.32792580503580426 l -11.352261376447917 27.1585147699214" fill="#bfff1e" stroke="none" /><path d="M 108.09893153111575 80.62456947434976 l 9.590825223518092 -22.944553499185883 a45.868382813224386,45.868382813224386 0 0,0 0.7258480291774293,0.3107702456309037 l -9.984357010485837 22.776063725592188" fill="#fbff18" stroke="none" /><path d="M 108.43124777332544 80.76684994638697 l 17.544011195566192 -40.02095643946477 a64.69747456272145,64.69747456272145 0 0,0 1.016113523848865,0.45590051915269747 l -18.230306837881837 39.71303558979554" fill="#32ff4b" stroke="none" /><path d="M 108.76106565485865 80.91482961587045 l 4.0051514815314295 -8.724851684781662 a30.600222669889007,30.600222669889007 0 0,0 0.4768123617462701,0.2238697971956273 l -4.154742054577298 8.654616904946032" fill="#ff2203" stroke="none" /><path d="M 109.08828744355905 81.06846463323043 l 12.785834074775835 -26.633782380179102 a50.543796588496164,50.543796588496164 0 0,0 0.781091155587958,0.3832780378053665 l -13.242396497374225 26.409749182238905" fill="#bdff1f" stroke="none" /><path d="M 109.41281617654863 81.2277094730956 l 11.737519502588613 -23.40852323417958 a47.18641487639675,47.18641487639675 0 0,0 0.7229397197507896,0.3703178035874098 l -12.138719709928159 23.203012905279667" fill="#e9ff1a" stroke="none" /><path d="M 109.73455568895987 81.39251694778311 l 7.409279548866091 -14.162746409784438 a36.98376705601991,36.98376705601991 0 0,0 0.5615455868502384,0.2999582049401801 l -7.65197018224464 14.033109478342503" fill="#ff850c" stroke="none" /><path d="M 110.05341064243156 81.56283822128135 l 14.81584665009381 -27.171093601166014 a51.947982800861524,51.947982800861524 0 0,0 0.7813864946710661,0.43484073829524067 l -15.28135723383691 26.912037465310593" fill="#acff21" stroke="none" /><path d="M 110.36928655335952 81.73862282372117 l 5.93159125366045 -10.446140588478197 a33.0127277499639,33.0127277499639 0 0,0 0.49173757668672563,0.28484614388131446 l -6.110525562812504 10.342490287206832" fill="#ff4806" stroke="none" /><line stroke="#e1ed5e" stroke-width="0.3" x1="143.23703022742887" x2="145.7803849466894" y1="26.81831364943548" y2="22.513508569990506" /><path d="M 143.74570117128098 25.957352633546492 a86.0,86.0 0 0,1 28.547481713284135,27.462654790039103" fill="none" id="id38" stroke="none" /><text fill="#e1ed5e" style="font-size:6.75px; font-family:Arial;" text-anchor="middle"><textPath startOffset="19.985693538727396" xlink:href="#id38">February</textPath></text><path d="M 110.68208982089419 81.91981866633111 l 22.307478446774333 -37.75696162240547 a64.85443815178917,64.85443815178917 0 0,0 0.9562568679017152,0.5761340632796595 l -22.954097380893685 37.3673809496672" fill="#32ff4d" stroke="none" /><path d="M 110.99172775467656 82.1063720568725 l 9.96075716166102 -16.21529268742789 a40.0303021566273,40.0303021566273 0 0,0 0.5840246621686614,0.36571618987149035 l -10.238400976201945 16.041432156233455" fill="#ffb210" stroke="none" /><path d="M 111.2981086023043 82.29822771554956 l 16.49302259502857 -25.841115582828273 a51.6558811467753,51.6558811467753 0 0,0 0.745401680935288,0.48482998797699833 l -16.93539130174814 25.553386670691747" fill="#afff20" stroke="none" /><path d="M 111.60114157652 82.49532879139004 l 16.07838356063018 -24.26026921043544 a50.104554284261845,50.104554284261845 0 0,0 0.71481377392464,0.4826454510138478 l -16.49360202896136 23.97991184712292" fill="#c3ff1e" stroke="none" /><path d="M 111.90073688211348 82.69761687909136 l 10.276307595458832 -14.940638789533132 a39.13353758194432,39.13353758194432 0 0,0 0.5517248512355535,0.3865185167029722 l -10.531963586278035 14.761535430066225" fill="#ffa50f" stroke="none" /><path d="M 112.19680574252982 82.90503203632743 l 13.022774750967347 -18.252641049256802 a43.42212227884433,43.42212227884433 0 0,0 0.6047144302050724,0.43935075084251207 l -13.335034497526209 18.025771063597617" fill="#ffe215" stroke="none" /><path d="M 112.48926042617603 83.11751280151076 l 4.533156594828558 -6.12774140096721 a28.62225185823489,28.62225185823489 0 0,0 0.39356120534102834,0.2964221404834058 l -4.63796395392797 6.048802670977957" fill="#ff0200" stroke="none" /><path d="M 112.77801427241765 83.33499621200491 l 22.13133707053559 -28.863547046585822 a57.371698181967474,57.371698181967474 0 0,0 0.7785269636704585,0.6076526439348682 l -22.62489658936548 28.47831601342773" fill="#6aff28" stroke="none" /><path d="M 113.06298171725822 83.55741782278167 l 12.664773982517307 -15.941351788643939 a41.35984275178835,41.35984275178835 0 0,0 0.5536243444492748,0.44765905121885113 l -12.937301725531073 15.720986640160957" fill="#ffc512" stroke="none" /><path d="M 113.34407831869373 83.78471172551755 l 20.32020271023602 -24.692446857180297 a52.978548590887556,52.978548590887556 0 0,0 0.699171687848079,0.585536181471443 l -20.74223193504322 24.339009518315034" fill="#9fff22" stroke="none" /><path d="M 113.6212207817346 84.01681056812373 l 11.902233492734235 -13.966123567418443 a39.349816609872846,39.349816609872846 0 0,0 0.5117466161080398,0.44378162265399834 l -12.140873907489038 13.759176951344774" fill="#ffa80f" stroke="none" /><path d="M 113.89432698308785 84.25364557470407 l 20.326804110236004 -23.036240779631203 a51.72209879863436,51.72209879863436 0 0,0 0.6625083940622518,0.5948065775429776 l -20.720323491894245 22.68293519331893" fill="#aeff20" stroke="none" /><path d="M 114.16331599549186 84.49514656593476 l 12.343271842756932 -13.512416222280608 a39.301413933036656,39.301413933036656 0 0,0 0.49555736024683184,0.46056655855726414 l -12.57403708679861 13.297945077648704" fill="#ffa70f" stroke="none" /><path d="M 114.42810811169701 84.74124197986012 l 33.011305006314345 -34.91182011673581 a69.04769965443958,69.04769965443958 0 0,0 0.85657536904755,0.8240248263599677 l -33.60736361897431 34.338412203613544" fill="#38ff83" stroke="none" /><path d="M 114.68862486808459 84.99185889309783 l 8.23620381331033 -8.415362916915866 a32.77511725112707,32.77511725112707 0 0,0 0.3998005564312928,0.3980836857857784 l -8.379840169908947 8.272343380479969" fill="#ff4506" stroke="none" /><path d="M 114.94478906791727 85.2469230424477 l 18.07620124820901 -17.844319307759584 a46.40017289553428,46.40017289553428 0 0,0 0.5562181756266841,0.5732317229412722 l -18.380683687538802 17.530523389268197" fill="#f3ff19" stroke="none" /><path d="M 115.19652480421416 85.50635884689758 l 22.28753139020268 -21.256667976386577 a51.79902577887178,51.79902577887178 0 0,0 0.6098291363157856,0.650523203514787 l -22.65012784848893 20.869875355993734" fill="#adff20" stroke="none" /><path d="M 115.4437574822437 85.77008943001954 l 22.775510513547534 -20.985403206833215 a51.96951770541608,51.96951770541608 0 0,0 0.6005111412065116,0.6630994007672409 l -23.13336529537008 20.590251018796426" fill="#abff21" stroke="none" /><path d="M 115.68641384162765 86.03803664274999 l 15.486156869476789 -13.783721183134702 a41.731908359831216,41.731908359831216 0 0,0 0.47297779705064025,0.5406953845082967 l -15.721126530105277 13.515110242423457" fill="#ffca12" stroke="none" /><path d="M 115.9244219780498 86.31012108654704 l 27.07038535204209 -23.271820987963512 a56.69850718452908,56.69850718452908 0 0,0 0.6298647598702412,0.745561206114167 l -27.46696072539945 22.80240083222024" fill="#72ff27" stroke="none" /><path d="M 116.15771136456269 86.58626213691792 l 8.952763810706047 -7.432366143777124 a32.63580879636015,32.63580879636015 0 0,0 0.3551110248702045,0.435324127690651 l -9.079373327652661 7.277157846478372" fill="#ff4306" stroke="none" /><path d="M 116.38621287248628 86.86637796730983 l 34.05070852809265 -27.29179336515073 a64.63820271678483,64.63820271678483 0 0,0 0.6883842988261464,0.8741781529891558 l -34.51544690751276 26.701622818208538" fill="#32ff4a" stroke="none" /><path d="M 116.60985879189232 87.15038557335679 l 13.062368006546727 -10.105226930946303 a37.514874182517346,37.514874182517346 0 0,0 0.3907335991991326,0.5141596152683837 l -13.234377545969972 9.878882539796887" fill="#ff8d0d" stroke="none" /><path d="M 116.82858285166822 87.43820079747576 l 19.497274827910815 -14.553860746531441 a45.33019910203189,45.33019910203189 0 0,0 0.4613694443002598,0.6293074035281442 l -19.7449068847247 14.216090899331803" fill="#fffc17" stroke="none" /><path d="M 117.04232023915458 87.72973835380427 l 20.09199417039792 -14.465989489988118 a45.75788928135334,45.75788928135334 0 0,0 0.4547187636871246,0.6431674436479712 l -20.33802555388893 14.117995546008354" fill="#fcff18" stroke="none" /><path d="M 117.2510076193507 88.02491185347247 l 8.842189560263531 -6.137960270430086 a31.76377594067303,31.76377594067303 0 0,0 0.30792036473814965,0.45183513987589297 l -8.946534390670413 5.9848471072837865" fill="#ff3505" stroke="none" /><path d="M 117.45458315368197 88.32363383020206 l 25.898567667244986 -17.325029002039038 a52.15914692568398,52.15914692568398 0 0,0 0.4927881069960023,0.7505500952036256 l -26.192952409598913 16.87666084285774" fill="#a9ff21" stroke="none" /><path d="M 117.65298651832404 88.62581576622439 l 16.491245912283723 -10.625650739386742 a40.61799289873571,40.61799289873571 0 0,0 0.37363215828159424,0.5909963464445888 l -16.671705666811274 10.340206745227947" fill="#ffba11" stroke="none" /><line stroke="#e1ed5e" stroke-width="0.3" x1="172.23445277983987" x2="176.4835382374775" y1="55.19839476539836" y2="52.563006222186495" /><path d="M 173.08426987136738 54.67131705675599 a86.0,86.0 0 0,1 12.851231095245387,41.99856678651699" fill="none" id="id39" stroke="none" /><text fill="#e1ed5e" style="font-size:6.75px; font-family:Arial;" text-anchor="middle"><textPath startOffset="22.20632615414155" xlink:href="#id39">March</textPath></text><path d="M 117.84615892207809 88.93136811851018 l 35.87645710518441 -22.25147151514358 a63.216681051562816,63.216681051562816 0 0,0 0.5655912216365369,0.9296832561719925 l -36.25416412510717 21.63062048576451" fill="#30ff37" stroke="none" /><path d="M 118.03404312379186 89.2402003453031 l 12.157675882555198 -7.25373427717129 a35.15717993913597,35.15717993913597 0 0,0 0.3056001462283409,0.5223697116470976 l -12.280735703253866 7.043385153170297" fill="#ff6a09" stroke="none" /><path d="M 118.21658344932153 89.55222093294921 l 19.122079452053317 -10.967109281136116 a43.04385194459039,43.04385194459039 0 0,0 0.36308997434876367,0.6458965496983676 l -19.308027067694514 10.636329221502955" fill="#ffdd14" stroke="none" /><path d="M 118.3937258080291 89.86733742301442 l 19.204704733695042 -10.579411424749333 a42.9258894917065,42.9258894917065 0 0,0 0.3509536933128198,0.6502638930800578 l -19.383966526226327 10.247266548336817" fill="#ffdb14" stroke="none" /><path d="M 118.56541770881063 90.18545643968196 l 17.43924560927139 -9.219196593139529 a40.726146943674706,40.726146943674706 0 0,0 0.3223000688463664,0.6225811469596699 l -17.595355111277872 8.917642723919514" fill="#ffbc11" stroke="none" /><path d="M 118.73160827565052 90.50648371742162 l 13.298314842393772 -6.739825359856068 a35.90873648331036,35.90873648331036 0 0,0 0.27468471254945037,0.5537476190113333 l -13.412359567896631 6.509918152345786" fill="#ff750a" stroke="none" /><path d="M 118.89224826269711 90.83032412892265 l 9.171087163662001 -4.451344038402596 a31.194277978930547,31.194277978930547 0 0,0 0.23030558093598683,0.4850822886970022 l -9.246350938439745 4.292819334065054" fill="#ff2c04" stroke="none" /><path d="M 119.04729006885535 91.15688171328212 l 29.162378394774766 -13.539267829427079 a53.1520774911511,53.1520774911511 0 0,0 0.378133201226791,0.8331663854480061 l -29.391113912964904 13.03527943513701" fill="#9dff22" stroke="none" /><path d="M 119.196687751892 91.48605970444005 l 12.073804422897261 -5.354863887218431 a34.20800213859044,34.20800213859044 0 0,0 0.23409560500175672,0.5403249319692272 l -12.164190737741698 5.146239810662601" fill="#ff5b08" stroke="none" /><path d="M 119.34039704204932 91.81776055985345 l 20.15600470056038 -8.527294256583117 a42.88559509877142,42.88559509877142 0 0,0 0.28177533660047815,0.6823413277972723 l -20.299801724047054 8.179078358332541" fill="#ffda14" stroke="none" /><path d="M 119.47837535516314 92.15188598940014 l 14.402452255700606 -5.802952519086657 a36.527552573297235,36.527552573297235 0 0,0 0.229960859867866,0.585225305333686 l -14.500206665450172 5.554178208857186" fill="#ff7e0b" stroke="none" /><path d="M 119.61058180528143 92.48833698450437 l 13.393296525273163 -5.130185894707413 a35.34221737138819,35.34221737138819 0 0,0 0.21271876704388656,0.569980538560436 l -13.479619880818676 4.8988822191176435" fill="#ff6c0a" stroke="none" /><path d="M 119.7369772167798 92.82701384747503 l 15.358689899766652 -5.581790400927754 a37.34153418492534,37.34153418492534 0 0,0 0.21435270970609185,0.6060039753854413 l -15.452495690282554 5.3165887991156975" fill="#ff8a0c" stroke="none" /><path d="M 119.97218684219823 93.5106431181261 l 9.27322319519777 -3.013052863683601 a30.75044388668054,30.75044388668054 0 0,0 0.1592353402080951,0.5048195434403263 l -9.323714019174071 2.8529831538168557" fill="#ff2503" stroke="none" /><path d="M 120.08093135843002 93.85539295169968 l 60.24279407529006 -18.433821144900946 a84.0,84.0 0 0,0 0.41117641155319085,1.3862824530138804 l -60.551176383954946 17.394109305140535" fill="#4dd2ff" stroke="none" /><path d="M 120.28053869075195 94.5502522615342 l 20.155690498461446 -5.416198769971336 a41.87072276145721,41.87072276145721 0 0,0 0.18104834352294874,0.697653121861285 l -20.245935173854697 5.068449222561201" fill="#ffcc13" stroke="none" /><path d="M 120.37134235888165 94.90015583598534 l 20.65447879809255 -5.170725684323497 a42.29187400214874,42.29187400214874 0 0,0 0.17071255861354284,0.7077137669121278 l -20.740424156966913 4.814426685751964" fill="#ffd213" stroke="none" /><path d="M 120.45610955862082 95.25157060432595 l 22.410472226157953 -5.202091081135173 a44.00632558701678,44.00632558701678 0 0,0 0.16493070624352735,0.7393520164281677 l -22.496697319403516 4.8155608951570406" fill="#ffea16" stroke="none" /><path d="M 120.53481517161879 95.60439243477599 l 15.162775215259668 -3.2456883049087866 a36.506264695313135,36.506264695313135 0 0,0 0.12624336408033957,0.6156074776739319 l -15.216397875255003 2.9842051710714426" fill="#ff7e0b" stroke="none" /><path d="M 120.6074358757038 95.95851677861258 l 26.77521812498555 -5.2510945783749525 a48.2852762476687,48.2852762476687 0 0,0 0.15293619978219758,0.8169912945987092 l -26.861640048677607 4.78942520631368" fill="#daff1b" stroke="none" /><path d="M 120.67395015179393 96.31383870115 l 22.001535630082333 -3.922869531918713 a43.34852289182081,43.34852289182081 0 0,0 0.1246541239659551,0.7357156959124366 l -22.065801615568514 3.5435680476904383" fill="#ffe115" stroke="none" /><line stroke="#e1ed5e" stroke-width="0.3" x1="184.98032266829074" x2="189.97916517819016" y1="98.17113171792111" y2="98.06355123074" /><path d="M 185.9800911702706 98.14961562048488 a86.0,86.0 0 0,1 -9.607161424134198,41.387399972396054" fill="none" id="id40" stroke="none" /><text fill="#e1ed5e" style="font-size:6.75px; font-family:Arial;" text-anchor="middle"><textPath startOffset="21.466115282336823" xlink:href="#id40">April</textPath></text><line stroke="#e1ed5e" stroke-width="0.3" x1="174.80103733775053" x2="179.2010983576182" y1="140.37084112569926" y2="142.7455964860345" /><path d="M 175.68104954172406 140.8457921977663 a86.0,86.0 0 0,1 -30.038265399797805,32.042727171017184" fill="none" id="id41" stroke="none" /><text fill="#e1ed5e" style="font-size:6.75px; font-family:Arial;" text-anchor="middle"><textPath startOffset="22.206326154141568" xlink:href="#id41">May</textPath></text><line stroke="#e1ed5e" stroke-width="0.3" x1="143.8653032363475" x2="146.44561519142675" y1="172.8068346515853" y2="177.08958963109032" /><path d="M 144.38136562736335 173.6633856474863 a86.0,86.0 0 0,1 -40.68145358897372,12.25698825130547" fill="none" id="id42" stroke="none" /><text fill="#e1ed5e" style="font-size:6.75px; font-family:Arial;" text-anchor="middle"><textPath startOffset="21.466115282336833" xlink:href="#id42">June</textPath></text><line stroke="#e1ed5e" stroke-width="0.3" x1="102.19456741930631" x2="102.32365962044197" y1="184.97166512339345" y2="189.96999836594603" /><path d="M 102.22038585953345 185.97133177190398 a86.0,86.0 0 0,1 -42.740103519485714,-10.115201625700543" fill="none" id="id43" stroke="none" /><text fill="#e1ed5e" style="font-size:6.75px; font-family:Arial;" text-anchor="middle"><textPath startOffset="22.20632615414155" xlink:href="#id43">July</textPath></text><line stroke="#e1ed5e" stroke-width="0.3" x1="58.666819895761336" x2="56.23545636021788" y1="174.27360380694188" y2="178.64263932499728" /><path d="M 58.180547188652646 175.14741091055294 a86.0,86.0 0 0,1 -31.652253787137756,-30.449443065178592" fill="none" id="id44" stroke="none" /><text fill="#e1ed5e" style="font-size:6.75px; font-family:Arial;" text-anchor="middle"><textPath startOffset="22.20632615414155" xlink:href="#id44">August</textPath></text><line stroke="#e1ed5e" stroke-width="0.3" x1="26.63291911575756" x2="22.317208475507996" y1="142.92168965132927" y2="145.44649492493687" /><path d="M 25.769776987707644 143.4266507060508 a86.0,86.0 0 0,1 -11.730757126820373,-40.83630448921669" fill="none" id="id45" stroke="none" /><text fill="#e1ed5e" style="font-size:6.75px; font-family:Arial;" text-anchor="middle"><textPath startOffset="21.46611528233685" xlink:href="#id45">September</textPath></text><line stroke="#e1ed5e" stroke-width="0.3" x1="15.007084014347285" x2="10.007500721073583" y1="101.09737516637583" y2="101.16192664675087" /><path d="M 14.007167355692545 101.11028546245083 a86.0,86.0 0 0,1 10.666146001902534,-42.60595125391555" fill="none" id="id46" stroke="none" /><text fill="#e1ed5e" style="font-size:6.75px; font-family:Arial;" text-anchor="middle"><textPath startOffset="22.20632615414155" xlink:href="#id46">October</textPath></text><line stroke="#e1ed5e" stroke-width="0.3" x1="26.266209847984243" x2="21.928928074336255" y1="57.711370442889674" y2="55.22380399835377" /><path d="M 25.398753493254645 57.213857153982495 a86.0,86.0 0 0,1 29.58750427330803,-30.492523968695096" fill="none" id="id47" stroke="none" /><text fill="#e1ed5e" style="font-size:6.75px; font-family:Arial;" text-anchor="middle"><textPath startOffset="21.46611528233685" xlink:href="#id47">November</textPath></text><line stroke="#e1ed5e" stroke-width="0.3" x1="56.762969772571076" x2="54.21961505331055" y1="26.818313649435495" y2="22.513508569990535" /><path d="M 56.25429882871897 25.957352633546506 a86.0,86.0 0 0,1 42.265352541879196,-11.944610805530505" fill="none" id="id48" stroke="none" /><text fill="#e1ed5e" style="font-size:6.75px; font-family:Arial;" text-anchor="middle"><textPath startOffset="22.20632615414155" xlink:href="#id48">December</textPath></text></svg>