<?xml version="1.0" encoding="utf-8" ?>
<svg baseProfile="full" height="200mm" version="1.1" viewBox="0,0,200,200" width="200mm" xmlns="http://www.w3.org/2000/svg" xmlns:ev="http://www.w3.org/2001/xml-events" xmlns:xlink="http://www.w3.org/1999/xlink"><defs /><rect fill="#1a1a1a" height="200" width="200" x="0" y="0" /><text alignment-baseline="middle" fill="#e1ed5e" style="dominant-baseline: central; font-size:9.0px; font-family:Arial;" text-anchor="middle" x="100.0" y="100.0">2025</text><line stroke="#e1ed5e" stroke-width="0.3" x1="100.0" x2="100.0" y1="15.0" y2="10.0" /><path d="M 100.0 14.0 a86.0,86.0 0 0,1 42.46469731375804,11.215312516191453" fill="none" id="id37" stroke="none" /><text fill="#e1ed5e" style="font-size:6.75px; font-family:Arial;" text-anchor="middle"><textPath startOffset="22.20632615414155" xlink:href="#id37">January</textPath></text><path d="M 100.0 79.0 l 0.0 -40.49716519016226 a61.49716519016226,61.49716519016226 0 0,0 1.058572606992462,0.009111468631683408 l -0.6970921277199336 40.491165098139135" fill="#46ff2c" stroke="none" /><path d="M 100.36148047927253 79.00311137660856 l 0.37794030590280775 -21.952971085193614 a42.95622413672653,42.95622413672653 0 0,0 0.739201678838681,0.019091398507021736 l -0.7557686199363566 21.94321289454423" fill="#ffc212" stroke="none" /><path d="M 100.72285384407766 79.0124445844662 l 0.33723375401386896 -9.791346007691933 a30.797151792597226,30.797151792597226 0 0,0 0.5296511288663724,0.022807891759731306 l -0.5057257152695729 9.784090389408007" fill="#ff0000" stroke="none" /><path d="M 101.08401301168833 79.027996857942 l 2.9655933132209253 -57.374248844180215 a78.4508413701082,78.4508413701082 0 0,0 1.3480019460380217,0.08131515861864959 l -3.9527573080985587 57.31470041618126" fill="#45ffef" stroke="none" /><path d="M 101.44485096284872 79.0497635885617 l 1.2456829822227315 -18.06231482852549 a39.10521866912883,39.10521866912883 0 0,0 0.6711383074040459,0.05209324949198292 l -1.5564114789891186 18.038196316845042" fill="#ff870c" stroke="none" /><path d="M 101.80526077348638 79.07773832637324 l 3.460976660827429 -40.11135698933023 a61.260393924703266,61.260393924703266 0 0,0 1.0498131656216267,0.09969240976963899 l -4.1509149535393 40.04583903504542" fill="#49ff2c" stroke="none" /><path d="M 102.16513564639614 79.11191278185805 l 3.158548483465506 -30.472010525148647 a51.63527140351742,51.63527140351742 0 0,0 0.8832908934026465,0.09924802368998724 l -3.6826060803778775 30.41312654798806" fill="#c1ff1e" stroke="none" /><path d="M 102.52436894288641 79.15227682838746 l 4.83571137341959 -39.9361481351446 a61.22785145094419,61.22785145094419 0 0,0 1.045203950013,0.13569747026590898 l -5.522430051940436 39.846992341714554" fill="#49ff2c" stroke="none" /><path d="M 102.88285421437855 79.19881850522331 l 2.6184873813522884 -18.893647479511113 a40.07423370010805,40.07423370010805 0 0,0 0.6824661455576174,0.10057776947705127 l -2.9433225073385616 18.84577522587309" fill="#ff960d" stroke="none" /><path d="M 103.2404852339499 79.25152402106235 l 3.037806618488858 -19.45074675607927 a40.68653901579612,40.68653901579612 0 0,0 0.6910333414393157,0.11402642233963653 l -3.372169166067049 19.39557407080001" fill="#ffa00e" stroke="none" /><path d="M 103.59715602781102 79.31037775812273 l 10.33605604243039 -59.44949102441101 a81.34132943160755,81.34132943160755 0 0,0 1.3773987429455166,0.2517108161620963 l -11.357849906478807 59.262764726898176" fill="#49efff" stroke="none" /><path d="M 103.95276090670814 79.375362276772 l 2.172122493300177 -11.333657808334241 a32.53992701200126,32.53992701200126 0 0,0 0.5492020555495848,0.11016476571855603 l -2.366890958316887 11.294589086538476" fill="#ff1d03" stroke="none" /><path d="M 104.66035177308747 79.52364482259891 l 8.5289033147707 -37.4737492039703 a59.43207086737288,59.43207086737288 0 0,0 0.9955616555193546,0.23561727855439918 l -9.172688657252579 37.32138601327503" fill="#5fff29" stroke="none" /><path d="M 105.01212808612495 79.60689891045804 l 9.619968851529213 -39.14125774450317 a61.30610200113652,61.30610200113652 0 0,0 1.0226182190651105,0.26068815358415554 l -10.292295959279349 38.969866594750144" fill="#49ff2c" stroke="none" /><path d="M 105.36241919743992 79.69619591428918 l 9.375222767787525 -35.497539324775246 a57.714712310729155,57.714712310729155 0 0,0 0.9583448574094066,0.2619518512167091 l -9.984865514420642 35.33090093273225" fill="#73ff27" stroke="none" /><path d="M 106.0581310904928 79.89281104454417 l 16.63215611423675 -55.20281762314835 a78.65396508951419,78.65396508951419 0 0,0 1.2929761544381342,0.40173398506934416 l -17.579917641385602 54.908343503196484" fill="#45fff1" stroke="none" /><path d="M 106.40334571778207 80.00007090966166 l 9.324850863141009 -29.124830090447983 a51.58118002002679,51.58118002002679 0 0,0 0.8432716738038764,0.2780134126086061 l -9.824805359187302 28.96000295358014" fill="#c2ff1e" stroke="none" /><path d="M 106.74666289553966 80.11325718540242 l 12.90757744612445 -38.04690956180419 a61.17677043680599,61.17677043680599 0 0,0 0.994320603970085,0.3468989347283132 l -13.560580054157807 37.81908977390367" fill="#4aff2c" stroke="none" /><path d="M 107.08798089147638 80.2323363322302 l 12.235047836056733 -34.122314137879485 a57.24953403389796,57.24953403389796 0 0,0 0.9247644659801235,0.340598557228848 l -12.820594627809434 33.90665231284431" fill="#79ff26" stroke="none" /><path d="M 107.4271985657038 80.35727306442388 l 4.087137906604028 -10.809261814835768 a32.55616014293962,32.55616014293962 0 0,0 0.5224749548160713,0.20271216533319683 l -4.272596026419766 10.737306945612024" fill="#ff1e03" stroke="none" /><path d="M 107.76421540070413 80.48803036053334 l 14.269875339709005 -35.86110894889972 a59.59596452034449,59.59596452034449 0 0,0 0.9498919348760695,0.3874847706020327 l -14.885051144173461 35.6101632921141" fill="#5dff2a" stroke="none" /><path d="M 108.09893153111575 80.62456947434976 l 12.575461331702067 -30.084829884569643 a53.60734912391114,53.60734912391114 0 0,0 0.848313943603847,0.36320375895302615 l -13.09145903309623 29.863906597653827" fill="#a7ff21" stroke="none" /><path d="M 108.43124777332544 80.76684994638697 l 23.003654977653934 -52.47535831724906 a78.29599787816443,78.29599787816443 0 0,0 1.229686673938365,0.5517245660899591 l -23.903523770059078 52.07161342064257" fill="#45ffed" stroke="none" /><path d="M 108.76106565485865 80.91482961587045 l 5.251542636821437 -11.439999419211654 a33.58778323526094,33.58778323526094 0 0,0 0.523364500415403,0.24572665049681588 l -5.447685348536439 11.347907786074837" fill="#ff2f04" stroke="none" /><path d="M 109.08828744355905 81.06846463323043 l 16.764747376130614 -34.922135752991124 a59.73773767446699,59.73773767446699 0 0,0 0.9231720151979984,0.4529964985656148 l -17.363390658339046 34.62838409429068" fill="#5bff2a" stroke="none" /><path d="M 109.41281617654863 81.2277094730956 l 15.390200446250846 -30.69318561262378 a55.33554882081769,55.33554882081769 0 0,0 0.8477920236484998,0.4342720029336096 l -15.916252957488101 30.42372108437767" fill="#91ff24" stroke="none" /><path d="M 109.73455568895987 81.39251694778311 l 9.715025171562674 -18.570150709264517 a41.95786753104652,41.95786753104652 0 0,0 0.6370701856849106,0.3403008300551688 l -10.033240403775896 18.400171152707593" fill="#ffb310" stroke="none" /><path d="M 110.05341064243156 81.56283822128135 l 19.42649378989915 -35.626656617998805 a61.57890243397163,61.57890243397163 0 0,0 0.9262519952511935,0.515458232525532 l -20.03686987422238 35.28698298791309" fill="#45ff2d" stroke="none" /><path d="M 110.36928655335952 81.73862282372117 l 7.7774847009992 -13.696948278632476 a36.751052676624816,36.751052676624816 0 0,0 0.5474213982184326,0.31710180745446237 l -8.012102831682961 13.561042313787965" fill="#ff6209" stroke="none" /><line stroke="#e1ed5e" stroke-width="0.3" x1="143.23703022742887" x2="145.7803849466894" y1="26.81831364943548" y2="22.513508569990506" /><path d="M 143.74570117128098 25.957352633546492 a86.0,86.0 0 0,1 28.547481713284135,27.462654790039103" fill="none" id="id38" stroke="none" /><text fill="#e1ed5e" style="font-size:6.75px; font-family:Arial;" text-anchor="middle"><textPath startOffset="19.985693538727396" xlink:href="#id38">February</textPath></text><path d="M 110.68208982089419 81.91981866633111 l 29.249498982349888 -49.506815088321424 a78.5018080664229,78.5018080664229 0 0,0 1.1574827451365135,0.6973704027819176 l -30.097343793704038 48.995998076080895" fill="#45fff0" stroke="none" /><path d="M 110.99172775467656 82.1063720568725 l 13.060514981941724 -21.26144324608817 a45.95247523794288,45.95247523794288 0 0,0 0.670426586380644,0.419821066886506 l -13.424560720694632 21.03347783787872" fill="#ffee16" stroke="none" /><path d="M 111.2981086023043 82.29822771554956 l 21.62560186980338 -33.882793420428726 a61.195899619273256,61.195899619273256 0 0,0 0.8830654986397625,0.5743703643802042 l -22.205634394227424 33.505524131889" fill="#4aff2c" stroke="none" /><path d="M 111.60114157652 82.49532879139004 l 21.08192840874342 -31.809992387766883 a59.161804479625566,59.161804479625566 0 0,0 0.8440285186920877,0.5698918234830204 l -21.626361621842047 31.44238865198519" fill="#62ff29" stroke="none" /><path d="M 111.90073688211348 82.69761687909136 l 13.474263766425421 -19.59012086968071 a44.77664021126418,44.77664021126418 0 0,0 0.6312842305058027,0.442254946186764 l -13.809479136514874 19.355281080730013" fill="#ffdd14" stroke="none" /><path d="M 112.19680574252982 82.90503203632743 l 17.07542328168744 -23.932808321176875 a50.399819631878465,50.399819631878465 0 0,0 0.7018887288698632,0.5099520114515766 l -17.48485732691109 23.635337074908623" fill="#d2ff1c" stroke="none" /><path d="M 112.48926042617603 83.11751280151076 l 5.943861361275614 -8.034676187151522 a30.994273826268966,30.994273826268966 0 0,0 0.4261769418476688,0.3209876370250774 l -6.081284456881666 7.931171960620598" fill="#ff0300" stroke="none" /><path d="M 112.77801427241765 83.33499621200491 l 29.018542936943955 -37.845796510819795 a68.69046181073989,68.69046181073989 0 0,0 0.9321212089107275,0.7275353886164466 l -29.665696701014113 37.34068273298013" fill="#37ff76" stroke="none" /><path d="M 113.06298171725822 83.55741782278167 l 16.606013745444038 -20.902252759394507 a47.6957648875527,47.6957648875527 0 0,0 0.6384341625122923,0.5162360259649688 l -16.96335130652082 20.61331063616541" fill="#f7ff18" stroke="none" /><path d="M 113.34407831869373 83.78471172551755 l 26.643788983695543 -32.37666242484972 a62.93017721379641,62.93017721379641 0 0,0 0.8305059196490842,0.6955248236344757 l -27.197152440303746 31.913236443821425" fill="#36ff2f" stroke="none" /><path d="M 113.6212207817346 84.01681056812373 l 15.606172937208916 -18.31233942676511 a45.06022462545036,45.06022462545036 0 0,0 0.5860107990276324,0.5081827902704584 l -15.919077534883312 18.04099164307498" fill="#ffe115" stroke="none" /><path d="M 113.89432698308785 84.25364557470407 l 26.65244471962026 -30.20504997230743 a61.28272400622881,61.28272400622881 0 0,0 0.7849704479934763,0.7047542187058015 l -27.168426155209726 29.74179674483233" fill="#49ff2c" stroke="none" /><path d="M 114.16331599549186 84.49514656593476 l 16.18446110191322 -17.717439713578887 a44.99675918043194,44.99675918043194 0 0,0 0.5673708136076299,0.5273093369432437 l -16.4870397993157 17.436225790561004" fill="#ffe015" stroke="none" /><path d="M 114.42810811169701 84.74124197986012 l 43.28432433509102 -45.77627406041963 a84.0,84.0 0 0,0 1.042067025550327,1.0024676529507923 l -44.06587460425377 45.02442332070654" fill="#4dd2ff" stroke="none" /><path d="M 114.68862486808459 84.99185889309783 l 10.799285792459509 -11.034198672957958 a36.43949850161996,36.43949850161996 0 0,0 0.44449976076054887,0.44259093752628426 l -10.98762135338738 10.846671884781555" fill="#ff5d08" stroke="none" /><path d="M 114.94478906791727 85.2469230424477 l 23.70146098205439 -23.397418075663886 a54.304630688408025,54.304630688408025 0 0,0 0.650972199556054,0.6708840737143373 l -24.100697445313553 22.98596980639943" fill="#9eff22" stroke="none" /><path d="M 115.19652480421416 85.50635884689758 l 29.223344461466414 -27.87167943821876 a61.38359043250546,61.38359043250546 0 0,0 0.7226680690331712,0.7708919094706344 l -29.69877985247005 27.36451811187007" fill="#48ff2c" stroke="none" /><path d="M 115.4437574822437 85.77008943001954 l 29.863181227676414 -27.515997884163703 a61.6071389363785,61.6071389363785 0 0,0 0.7118744783982707,0.7860695791571551 l -30.33239934669072 26.997875517737" fill="#45ff2d" stroke="none" /><line stroke="#e1ed5e" stroke-width="0.3" x1="172.23445277983987" x2="176.4835382374775" y1="55.19839476539836" y2="52.563006222186495" /><path d="M 173.08426987136738 54.67131705675599 a86.0,86.0 0 0,1 12.851231095245387,41.99856678651699" fill="none" id="id39" stroke="none" /><text fill="#e1ed5e" style="font-size:6.75px; font-family:Arial;" text-anchor="middle"><textPath startOffset="22.20632615414155" xlink:href="#id39">March</textPath></text><line stroke="#e1ed5e" stroke-width="0.3" x1="184.98032266829074" x2="189.97916517819016" y1="98.17113171792111" y2="98.06355123074" /><path d="M 185.9800911702706 98.14961562048488 a86.0,86.0 0 0,1 -9.607161424134198,41.387399972396054" fill="none" id="id40" stroke="none" /><text fill="#e1ed5e" style="font-size:6.75px; font-family:Arial;" text-anchor="middle"><textPath startOffset="21.466115282336823" xlink:href="#id40">April</textPath></text><line stroke="#e1ed5e" stroke-width="0.3" x1="174.80103733775053" x2="179.2010983576182" y1="140.37084112569926" y2="142.7455964860345" /><path d="M 175.68104954172406 140.8457921977663 a86.0,86.0 0 0,1 -30.038265399797805,32.042727171017184" fill="none" id="id41" stroke="none" /><text fill="#e1ed5e" style="font-size:6.75px; font-family:Arial;" text-anchor="middle"><textPath startOffset="22.206326154141568" xlink:href="#id41">May</textPath></text><line stroke="#e1ed5e" stroke-width="0.3" x1="143.8653032363475" x2="146.44561519142675" y1="172.8068346515853" y2="177.08958963109032" /><path d="M 144.38136562736335 173.6633856474863 a86.0,86.0 0 0,1 -40.68145358897372,12.25698825130547" fill="none" id="id42" stroke="none" /><text fill="#e1ed5e" style="font-size:6.75px; font-family:Arial;" text-anchor="middle"><textPath startOffset="21.466115282336833" xlink:href="#id42">June</textPath></text><line stroke="#e1ed5e" stroke-width="0.3" x1="102.19456741930631" x2="102.32365962044197" y1="184.97166512339345" y2="189.96999836594603" /><path d="M 102.22038585953345 185.97133177190398 a86.0,86.0 0 0,1 -42.740103519485714,-10.115201625700543" fill="none" id="id43" stroke="none" /><text fill="#e1ed5e" style="font-size:6.75px; font-family:Arial;" text-anchor="middle"><textPath startOffset="22.20632615414155" xlink:href="#id43">July</textPath></text><line stroke="#e1ed5e" stroke-width="0.3" x1="58.666819895761336" x2="56.23545636021788" y1="174.27360380694188" y2="178.64263932499728" /><path d="M 58.180547188652646 175.14741091055294 a86.0,86.0 0 0,1 -31.652253787137756,-30.449443065178592" fill="none" id="id44" stroke="none" /><text fill="#e1ed5e" style="font-size:6.75px; font-family:Arial;" text-anchor="middle"><textPath startOffset="22.20632615414155" xlink:href="#id44">August</textPath></text><line stroke="#e1ed5e" stroke-width="0.3" x1="26.63291911575756" x2="22.317208475507996" y1="142.92168965132927" y2="145.44649492493687" /><path d="M 25.769776987707644 143.4266507060508 a86.0,86.0 0 0,1 -11.730757126820373,-40.83630448921669" fill="none" id="id45" stroke="none" /><text fill="#e1ed5e" style="font-size:6.75px; font-family:Arial;" text-anchor="middle"><textPath startOffset="21.46611528233685" xlink:href="#id45">September</textPath></text><line stroke="#e1ed5e" stroke-width="0.3" x1="15.007084014347285" x2="10.007500721073583" y1="101.09737516637583" y2="101.16192664675087" /><path d="M 14.007167355692545 101.11028546245083 a86.0,86.0 0 0,1 10.666146001902534,-42.60595125391555" fill="none" id="id46" stroke="none" /><text fill="#e1ed5e" style="font-size:6.75px; font-family:Arial;" text-anchor="middle"><textPath startOffset="22.20632615414155" xlink:href="#id46">October</textPath></text><line stroke="#e1ed5e" stroke-width="0.3" x1="26.266209847984243" x2="21.928928074336255" y1="57.711370442889674" y2="55.22380399835377" /><path d="M 25.398753493254645 57.213857153982495 a86.0,86.0 0 0,1 29.58750427330803,-30.492523968695096" fill="none" id="id47" stroke="none" /><text fill="#e1ed5e" style="font-size:6.75px; font-family:Arial;" text-anchor="middle"><textPath startOffset="21.46611528233685" xlink:href="#id47">November</textPath></text><line stroke="#e1ed5e" stroke-width="0.3" x1="56.762969772571076" x2="54.21961505331055" y1="26.818313649435495" y2="22.513508569990535" /><path d="M 56.25429882871897 25.957352633546506 a86.0,86.0 0 0,1 42.265352541879196,-11.944610805530505" fill="none" id="id48" stroke="none" /><text fill="#e1ed5e" style="font-size:6.75px; font-family:Arial;" text-anchor="middle"><textPath startOffset="22.20632615414155" xlink:href="#id48">December</textPath></text></svg>