<?xml version="1.0" encoding="utf-8" ?>
<svg baseProfile="full" height="200mm" version="1.1" viewBox="0,0,200,200" width="200mm" xmlns="http://www.w3.org/2000/svg" xmlns:ev="http://www.w3.org/2001/xml-events" xmlns:xlink="http://www.w3.org/1999/xlink"><defs /><rect fill="#1a1a1a" height="200" width="200" x="0" y="0" /><text alignment-baseline="middle" fill="#e1ed5e" style="dominant-baseline: central; font-size:9.0px; font-family:Arial;" text-anchor="middle" x="100.0" y="100.0">2025</text><line stroke="#e1ed5e" stroke-width="0.3" x1="100.0" x2="100.0" y1="15.0" y2="10.0" /><path d="M 100.0 14.0 a86.0,86.0 0 0,1 42.46469731375804,11.215312516191453" fill="none" id="id37" stroke="none" /><text fill="#e1ed5e" style="font-size:6.75px; font-family:Arial;" text-anchor="middle"><textPath startOffset="22.20632615414155" xlink:href="#id37">January</textPath></text><path d="M 100.0 79.0 l 0.0 -42.28149149202881 a63.28149149202881,63.28149149202881 0 0,0 1.0892868511247145,0.009375835827762644 l -0.727806371852186 42.27522703280961" fill="#34ff2f" stroke="none" /><path d="M 100.36148047927253 79.00311137660856 l 0.39459255366363855 -22.92023048538844 a43.92362686807514,43.92362686807514 0 0,0 0.7558489921791154,0.019521349496246763 l -0.7890681810376218 22.910042343749836" fill="#ffcc13" stroke="none" /><path d="M 100.72285384407766 79.0124445844662 l 0.35209244978525395 -10.22275783936367 a31.228819430191695,31.228819430191695 0 0,0 0.537074972898662,0.02312757810023245 l -0.5280082550732474 10.215182534739244" fill="#ff0000" stroke="none" /><path d="M 101.08401301168833 79.027996857942 l 3.09625890733281 -59.90218828838054 a80.98215552110338,80.98215552110338 0 0,0 1.3914969085136597,0.08393889353477037 l -4.126917864686082 59.84001612546547" fill="#49f3ff" stroke="none" /><path d="M 101.44485096284872 79.0497635885617 l 1.3005684266366917 -18.85814987697382 a39.90294408325782,39.90294408325782 0 0,0 0.6848291676634305,0.053155923744642786 l -1.6249877836624633 18.832968691040712" fill="#ff8e0d" stroke="none" /><path d="M 101.80526077348638 79.07773832637324 l 3.6134691046086753 -41.878684379865895 a63.03428796064452,63.03428796064452 0 0,0 1.0802122080378045,0.10257916513945162 l -4.333806439736724 41.810279670211266" fill="#37ff2e" stroke="none" /><path d="M 102.16513564639614 79.11191278185805 l 3.2977157834062263 -31.81462326348386 a52.985077501634024,52.985077501634024 0 0,0 0.9063811455097467,0.10184248255427511 l -3.844863632425698 31.753144827458986" fill="#b3ff20" stroke="none" /><path d="M 102.52436894288641 79.15227682838746 l 5.04877534842404 -41.69575573182862 a63.000311648452964,63.000311648452964 0 0,0 1.075461134542189,0.1396257212048082 l -5.7657512114740745 41.602671687459676" fill="#37ff2e" stroke="none" /><path d="M 102.88285421437855 79.19881850522331 l 2.7338593063676124 -19.726111479832696 a40.91465442386084,40.91465442386084 0 0,0 0.6967785512864076,0.10268704603739424 l -3.0730068380826756 19.676129949634333" fill="#ff9e0e" stroke="none" /><path d="M 103.2404852339499 79.25152402106235 l 3.171653968640437 -20.307756842213617 a41.553938232350184,41.553938232350184 0 0,0 0.7057655303518326,0.1164573597404674 l -3.520748705131145 20.250153219533523" fill="#ffa80f" stroke="none" /><path d="M 103.59715602781102 79.31037775812273 l 10.791468083433088 -62.06886672563182 a84.0,84.0 0 0,0 1.4224195155883965,0.2599380745970459 l -11.858282720124386 61.87391316968404" fill="#4dd2ff" stroke="none" /><path d="M 103.95276090670814 79.375362276772 l 2.2678273476392885 -11.833024705469017 a33.04838223824845,33.04838223824845 0 0,0 0.5577836560954895,0.1118861540565581 l -2.4711774132019033 11.79223459533525" fill="#ff1f03" stroke="none" /><path d="M 104.66035177308747 79.52364482259891 l 8.904691260400016 -39.124862214478945 a61.12540803213105,61.12540803213105 0 0,0 1.0239271747835434,0.2423304805110615 l -9.576842122146084 38.96578582182702" fill="#4dff2c" stroke="none" /><path d="M 105.01212808612495 79.60689891045804 l 10.043829715970421 -40.86584205438521 a63.08200995885735,63.08200995885735 0 0,0 1.052241303450974,0.26823973737960005 l -10.745779908106421 40.686899320836744" fill="#36ff2e" stroke="none" /><path d="M 105.36241919743992 79.69619591428918 l 9.788299991634421 -37.06157949329858 a59.33238175830352,59.33238175830352 0 0,0 0.9852060360240491,0.2692940260189916 l -10.424803916882182 36.88759892645329" fill="#62ff29" stroke="none" /><path d="M 106.0581310904928 79.89281104454417 l 17.3649776209281 -57.635082670827636 a81.19422897793832,81.19422897793832 0 0,0 1.334735023555218,0.4147086689757811 l -18.354498017194036 57.327633866969336" fill="#49f0ff" stroke="none" /><path d="M 106.40334571778207 80.00007090966166 l 9.735708674495356 -30.408085353470817 a52.928602823465525,52.928602823465525 0 0,0 0.8652999306668666,0.28527578255953034 l -10.257691427404641 30.235995846652052" fill="#b4ff20" stroke="none" /><path d="M 106.74666289553966 80.11325718540242 l 13.476292066576308 -39.72327631777547 a62.94697997808673,62.94697997808673 0 0,0 1.0230922407804668,0.35693679386555743 l -14.158066311420049 39.48541867073771" fill="#38ff2e" stroke="none" /><path d="M 107.08798089147638 80.2323363322302 l 12.774130449764591 -35.625761164625 a58.84670748303616,58.84670748303616 0 0,0 0.9505639642065261,0.35010073015655413 l -13.385476739743694 35.400597166662116" fill="#68ff28" stroke="none" /><path d="M 107.4271985657038 80.35727306442388 l 4.267219342720967 -11.285523549932687 a33.065330609435335,33.065330609435335 0 0,0 0.5306463366776918,0.20588253454547153 l -4.460848844398326 11.210398311496668" fill="#ff1f03" stroke="none" /><path d="M 107.76421540070413 80.48803036053334 l 14.898613518626897 -37.4411681854205 a61.29652292526436,61.29652292526436 0 0,0 0.9769969029157706,0.3985415676306434 l -15.540894291131055 37.179165731606275" fill="#4bff2c" stroke="none" /><path d="M 108.09893153111575 80.62456947434976 l 13.129542742262448 -31.410383241160122 a55.04404599893275,55.04404599893275 0 0,0 0.8710490724943983,0.3729377546460003 l -13.668275572547161 31.17972595855133" fill="#98ff23" stroke="none" /><path d="M 108.43124777332544 80.76684994638697 l 24.017208060269756 -54.787450079861735 a80.82048954383129,80.82048954383129 0 0,0 1.2693353640868654,0.569513777628014 l -24.956725542823403 54.365915971717186" fill="#48f5ff" stroke="none" /><path d="M 108.76106565485865 80.91482961587045 l 5.48292835501315 -11.944051783400251 a34.14240755534365,34.14240755534365 0 0,0 0.5320066509903653,0.24978425607034843 l -5.687713217303113 11.8479025446899" fill="#ff3104" stroke="none" /><path d="M 109.08828744355905 81.06846463323043 l 17.50341092324341 -36.46082333887068 a61.44454267878738,61.44454267878738 0 0,0 0.9495485516509674,0.46593935045104656 l -18.12843074190481 36.154128828284804" fill="#49ff2c" stroke="none" /><line stroke="#e1ed5e" stroke-width="0.3" x1="143.23703022742887" x2="145.7803849466894" y1="26.81831364943548" y2="22.513508569990506" /><path d="M 143.74570117128098 25.957352633546492 a86.0,86.0 0 0,1 28.547481713284135,27.462654790039103" fill="none" id="id38" stroke="none" /><text fill="#e1ed5e" style="font-size:6.75px; font-family:Arial;" text-anchor="middle"><textPath startOffset="19.985693538727396" xlink:href="#id38">February</textPath></text><line stroke="#e1ed5e" stroke-width="0.3" x1="172.23445277983987" x2="176.4835382374775" y1="55.19839476539836" y2="52.563006222186495" /><path d="M 173.08426987136738 54.67131705675599 a86.0,86.0 0 0,1 12.851231095245387,41.99856678651699" fill="none" id="id39" stroke="none" /><text fill="#e1ed5e" style="font-size:6.75px; font-family:Arial;" text-anchor="middle"><textPath startOffset="22.20632615414155" xlink:href="#id39">March</textPath></text><line stroke="#e1ed5e" stroke-width="0.3" x1="184.98032266829074" x2="189.97916517819016" y1="98.17113171792111" y2="98.06355123074" /><path d="M 185.9800911702706 98.14961562048488 a86.0,86.0 0 0,1 -9.607161424134198,41.387399972396054" fill="none" id="id40" stroke="none" /><text fill="#e1ed5e" style="font-size:6.75px; font-family:Arial;" text-anchor="middle"><textPath startOffset="21.466115282336823" xlink:href="#id40">April</textPath></text><line stroke="#e1ed5e" stroke-width="0.3" x1="174.80103733775053" x2="179.2010983576182" y1="140.37084112569926" y2="142.7455964860345" /><path d="M 175.68104954172406 140.8457921977663 a86.0,86.0 0 0,1 -30.038265399797805,32.042727171017184" fill="none" id="id41" stroke="none" /><text fill="#e1ed5e" style="font-size:6.75px; font-family:Arial;" text-anchor="middle"><textPath startOffset="22.206326154141568" xlink:href="#id41">May</textPath></text><line stroke="#e1ed5e" stroke-width="0.3" x1="143.8653032363475" x2="146.44561519142675" y1="172.8068346515853" y2="177.08958963109032" /><path d="M 144.38136562736335 173.6633856474863 a86.0,86.0 0 0,1 -40.68145358897372,12.25698825130547" fill="none" id="id42" stroke="none" /><text fill="#e1ed5e" style="font-size:6.75px; font-family:Arial;" text-anchor="middle"><textPath startOffset="21.466115282336833" xlink:href="#id42">June</textPath></text><line stroke="#e1ed5e" stroke-width="0.3" x1="102.19456741930631" x2="102.32365962044197" y1="184.97166512339345" y2="189.96999836594603" /><path d="M 102.22038585953345 185.97133177190398 a86.0,86.0 0 0,1 -42.740103519485714,-10.115201625700543" fill="none" id="id43" stroke="none" /><text fill="#e1ed5e" style="font-size:6.75px; font-family:Arial;" text-anchor="middle"><textPath startOffset="22.20632615414155" xlink:href="#id43">July</textPath></text><line stroke="#e1ed5e" stroke-width="0.3" x1="58.666819895761336" x2="56.23545636021788" y1="174.27360380694188" y2="178.64263932499728" /><path d="M 58.180547188652646 175.14741091055294 a86.0,86.0 0 0,1 -31.652253787137756,-30.449443065178592" fill="none" id="id44" stroke="none" /><text fill="#e1ed5e" style="font-size:6.75px; font-family:Arial;" text-anchor="middle"><textPath startOffset="22.20632615414155" xlink:href="#id44">August</textPath></text><line stroke="#e1ed5e" stroke-width="0.3" x1="26.63291911575756" x2="22.317208475507996" y1="142.92168965132927" y2="145.44649492493687" /><path d="M 25.769776987707644 143.4266507060508 a86.0,86.0 0 0,1 -11.730757126820373,-40.83630448921669" fill="none" id="id45" stroke="none" /><text fill="#e1ed5e" style="font-size:6.75px; font-family:Arial;" text-anchor="middle"><textPath startOffset="21.46611528233685" xlink:href="#id45">September</textPath></text><line stroke="#e1ed5e" stroke-width="0.3" x1="15.007084014347285" x2="10.007500721073583" y1="101.09737516637583" y2="101.16192664675087" /><path d="M 14.007167355692545 101.11028546245083 a86.0,86.0 0 0,1 10.666146001902534,-42.60595125391555" fill="none" id="id46" stroke="none" /><text fill="#e1ed5e" style="font-size:6.75px; font-family:Arial;" text-anchor="middle"><textPath startOffset="22.20632615414155" xlink:href="#id46">October</textPath></text><line stroke="#e1ed5e" stroke-width="0.3" x1="26.266209847984243" x2="21.928928074336255" y1="57.711370442889674" y2="55.22380399835377" /><path d="M 25.398753493254645 57.213857153982495 a86.0,86.0 0 0,1 29.58750427330803,-30.492523968695096" fill="none" id="id47" stroke="none" /><text fill="#e1ed5e" style="font-size:6.75px; font-family:Arial;" text-anchor="middle"><textPath startOffset="21.46611528233685" xlink:href="#id47">November</textPath></text><line stroke="#e1ed5e" stroke-width="0.3" x1="56.762969772571076" x2="54.21961505331055" y1="26.818313649435495" y2="22.513508569990535" /><path d="M 56.25429882871897 25.957352633546506 a86.0,86.0 0 0,1 42.265352541879196,-11.944610805530505" fill="none" id="id48" stroke="none" /><text fill="#e1ed5e" style="font-size:6.75px; font-family:Arial;" text-anchor="middle"><textPath startOffset="22.20632615414155" xlink:href="#id48">December</textPath></text></svg>